<?xml version="1.0" encoding="utf-8"?>

<!DOCTYPE svg PUBLIC "-//W3C//DTD SVG 1.1//EN" "http://www.w3.org/Graphics/SVG/1.1/DTD/svg11.dtd">
<svg version="1.1" id="Layer_1" xmlns="http://www.w3.org/2000/svg" xmlns:xlink="http://www.w3.org/1999/xlink" x="0px" y="0px"
	 viewBox="0 0 1610 1665.361" enable-background="new 0 0 1610 1665.361" xml:space="preserve">
<g>
	<g>
		<path fill="none" stroke="#000000" stroke-width="5" d="M380.001,229.364C548.999,9.122,864.541-32.42,1084.783,136.578
			c136.032,104.381,161.646,299.241,57.265,435.273c-64.617,84.21-185.309,100.06-269.519,35.443
			c-51.822-39.764-61.596-114.009-21.832-165.831c24.853-32.389,71.255-38.497,103.644-13.644
			c19.433,14.912,23.099,42.754,8.187,62.187c-9.941,12.955-28.502,15.399-41.458,5.458c-6.478-4.971-7.7-14.251-2.729-20.729"/>
	</g>
	<g>
		<path fill="none" stroke="#000000" stroke-width="5" d="M1114.988,162.963c275.234,36.235,468.982,288.731,432.746,563.966
			c-22.381,169.998-178.327,289.61-348.325,267.23c-105.237-13.855-179.308-110.452-165.454-215.689
			c8.526-64.761,67.937-110.349,132.698-101.823c40.476,5.329,68.967,42.46,63.638,82.936
			c-3.197,24.285-25.476,41.381-49.762,38.183c-16.19-2.131-27.587-16.984-25.456-33.174c1.066-8.095,8.492-13.794,16.587-12.728"/>
	</g>
	<g>
		<path fill="none" stroke="#000000" stroke-width="5" d="M1539.986,766.279c106.237,256.478-15.558,550.516-272.036,656.752
			c-158.413,65.617-339.973-9.63-405.59-168.043c-40.62-98.065,6-210.512,104.065-251.132
			c60.348-24.997,129.533,3.661,154.53,64.008c15.623,37.717-2.288,80.957-40.006,96.58c-22.63,9.374-48.575-1.373-57.949-24.003
			c-6.249-15.087,0.915-32.383,16.002-38.633c7.543-3.125,16.192,0.458,19.316,8.001"/>
	</g>
	<g>
		<path fill="none" stroke="#000000" stroke-width="5" d="M1229.999,1435.996c-168.998,220.242-484.54,261.784-704.782,92.786
			c-136.032-104.381-161.646-299.241-57.265-435.273c64.617-84.21,185.309-100.06,269.519-35.443
			c51.822,39.764,61.596,114.009,21.832,165.831c-24.853,32.389-71.255,38.497-103.644,13.644
			c-19.433-14.912-23.099-42.753-8.187-62.187c9.941-12.955,28.502-15.399,41.458-5.458c6.478,4.971,7.7,14.251,2.729,20.729"/>
	</g>
	<g>
		<path fill="none" stroke="#000000" stroke-width="5" d="M495.012,1502.398c-275.234-36.235-468.982-288.732-432.746-563.966
			c22.381-169.998,178.327-289.61,348.325-267.229c105.237,13.855,179.308,110.452,165.454,215.689
			c-8.526,64.761-67.937,110.349-132.698,101.823c-40.476-5.329-68.967-42.46-63.638-82.936
			c3.197-24.285,25.476-41.381,49.762-38.184c16.19,2.132,27.587,16.984,25.456,33.174c-1.066,8.095-8.492,13.794-16.587,12.728"/>
	</g>
	<g>
		<path fill="none" stroke="#000000" stroke-width="5" d="M70.014,899.082C-36.223,642.604,85.572,348.566,342.049,242.33
			c158.413-65.617,339.973,9.631,405.59,168.043c40.62,98.065-6,210.512-104.065,251.132
			c-60.348,24.997-129.533-3.661-154.53-64.008c-15.623-37.717,2.288-80.957,40.006-96.58c22.63-9.374,48.575,1.373,57.949,24.003
			c6.249,15.087-0.915,32.383-16.002,38.633c-7.543,3.125-16.192-0.458-19.316-8.001"/>
	</g>
</g>
</svg>
